<svg xmlns="http://www.w3.org/2000/svg" viewBox="0 0 512 512" role="img" aria-label="Coroa de doze estrelas de Nossa Senhora">
  <defs>
    <radialGradient id="manto" cx="50%" cy="38%" r="78%">
      <stop offset="0%" stop-color="#33417e"/>
      <stop offset="58%" stop-color="#1b2858"/>
      <stop offset="100%" stop-color="#0f1638"/>
    </radialGradient>
    <radialGradient id="estrela" cx="50%" cy="40%" r="70%">
      <stop offset="0%" stop-color="#fbeebf"/>
      <stop offset="55%" stop-color="#e6cd8a"/>
      <stop offset="100%" stop-color="#c8a45c"/>
    </radialGradient>
    <linearGradient id="ouro" x1="0" y1="0" x2="0" y2="1">
      <stop offset="0%" stop-color="#ecd595"/>
      <stop offset="100%" stop-color="#c8a45c"/>
    </linearGradient>
  </defs>
  <rect width="512" height="512" fill="url(#manto)"/>
  <g fill="#ffffff" opacity="0.7">
    <circle cx="120" cy="110" r="2.2"/>
    <circle cx="402" cy="98" r="1.8"/>
    <circle cx="432" cy="205" r="2.0"/>
    <circle cx="86" cy="225" r="1.6"/>
    <circle cx="410" cy="330" r="1.7"/>
    <circle cx="150" cy="395" r="1.6"/>
  </g>
  <circle cx="256" cy="256" r="234" fill="none" stroke="#e6cd8a" stroke-width="4" opacity="0.28"/>
  <g fill="url(#ouro)">
    <polygon points="256.0,62.0 262.5,79.1 280.7,80.0 266.5,91.4 271.3,109.0 256.0,99.0 240.7,109.0 245.5,91.4 231.3,80.0 249.5,79.1"/>
    <polygon points="353.0,88.0 350.0,106.0 365.4,115.9 347.4,118.7 342.7,136.4 334.5,120.0 316.2,121.1 329.2,108.2 322.6,91.2 338.9,99.6"/>
    <polygon points="424.0,159.0 412.4,173.1 420.8,189.4 403.8,182.8 390.9,195.8 392.0,177.5 375.6,169.3 393.3,164.6 396.1,146.6 406.0,162.0"/>
    <polygon points="450.0,256.0 432.9,262.5 432.0,280.7 420.6,266.5 403.0,271.3 413.0,256.0 403.0,240.7 420.6,245.5 432.0,231.3 432.9,249.5"/>
    <polygon points="424.0,353.0 406.0,350.0 396.1,365.4 393.3,347.4 375.6,342.7 392.0,334.5 390.9,316.2 403.8,329.2 420.8,322.6 412.4,338.9"/>
    <polygon points="353.0,424.0 338.9,412.4 322.6,420.8 329.2,403.8 316.2,390.9 334.5,392.0 342.7,375.6 347.4,393.3 365.4,396.1 350.0,406.0"/>
    <polygon points="256.0,450.0 249.5,432.9 231.3,432.0 245.5,420.6 240.7,403.0 256.0,413.0 271.3,403.0 266.5,420.6 280.7,432.0 262.5,432.9"/>
    <polygon points="159.0,424.0 162.0,406.0 146.6,396.1 164.6,393.3 169.3,375.6 177.5,392.0 195.8,390.9 182.8,403.8 189.4,420.8 173.1,412.4"/>
    <polygon points="88.0,353.0 99.6,338.9 91.2,322.6 108.2,329.2 121.1,316.2 120.0,334.5 136.4,342.7 118.7,347.4 115.9,365.4 106.0,350.0"/>
    <polygon points="62.0,256.0 79.1,249.5 80.0,231.3 91.4,245.5 109.0,240.7 99.0,256.0 109.0,271.3 91.4,266.5 80.0,280.7 79.1,262.5"/>
    <polygon points="88.0,159.0 106.0,162.0 115.9,146.6 118.7,164.6 136.4,169.3 120.0,177.5 121.1,195.8 108.2,182.8 91.2,189.4 99.6,173.1"/>
    <polygon points="159.0,88.0 173.1,99.6 189.4,91.2 182.8,108.2 195.8,121.1 177.5,120.0 169.3,136.4 164.6,118.7 146.6,115.9 162.0,106.0"/>
  </g>
  <polygon points="256.0,164.0 278.3,225.3 343.5,227.6 292.1,267.7 310.1,330.4 256.0,294.0 201.9,330.4 219.9,267.7 168.5,227.6 233.7,225.3" fill="url(#estrela)" stroke="#9c7a36" stroke-width="2"/>
  <polygon points="256.0,216.0 264.8,243.9 294.0,243.6 270.3,260.6 279.5,288.4 256.0,271.0 232.5,288.4 241.7,260.6 218.0,243.6 247.2,243.9" fill="#fff6df" opacity="0.85"/>
</svg>
